HIERARCHY
ROOT Hips
{
	OFFSET 0.00000 0.00000 0.00000
	CHANNELS 6 Xposition Yposition Zposition Zrotation Yrotation Xrotation 
	JOINT LHipJoint
	{
		OFFSET 0 0 0
		CHANNELS 3 Zrotation Yrotation Xrotation
		JOINT LeftHip
		{
			OFFSET 1.58161 -1.81893 0.78828
			CHANNELS 3 Zrotation Yrotation Xrotation
			JOINT LeftKnee
			{
				OFFSET 2.53374 -6.96141 0.00000
				CHANNELS 3 Zrotation Yrotation Xrotation
				JOINT LeftAnkle
				{
					OFFSET 2.63509 -7.23986 0.00000
					CHANNELS 3 Zrotation Yrotation Xrotation
					JOINT LeftToe
					{
						OFFSET 0.14115 -0.38781 2.05350
						CHANNELS 3 Zrotation Yrotation Xrotation
						End Site
						{
							OFFSET 0.00000 -0.00000 1.05543
						}
					}
				}
			}
		}
	}
	JOINT RHipJoint
	{
		OFFSET 0 0 0
		CHANNELS 3 Zrotation Yrotation Xrotation
		JOINT RightHip
		{
			OFFSET -1.11138 -1.81893 0.78828
			CHANNELS 3 Zrotation Yrotation Xrotation
			JOINT RightKnee
			{
				OFFSET -2.58392 -7.09926 0.00000
				CHANNELS 3 Zrotation Yrotation Xrotation
				JOINT RightAnkle
				{
					OFFSET -2.66423 -7.31992 0.00000
					CHANNELS 3 Zrotation Yrotation Xrotation
					JOINT RightToe
					{
						OFFSET -0.18831 -0.51739 2.12114
						CHANNELS 3 Zrotation Yrotation Xrotation
						End Site
						{
							OFFSET -0.00000 -0.00000 1.09845
						}
					}
				}
			}
		}
	}
	JOINT lowerback
	{
		OFFSET 0 0 0
		CHANNELS 3 Zrotation Yrotation Xrotation
		JOINT Chest
		{
			OFFSET -0.01511 1.97958 -0.08829
			CHANNELS 3 Zrotation Yrotation Xrotation
			JOINT Chest2
			{
				OFFSET 0.08344 1.97334 -0.04330
				CHANNELS 3 Zrotation Yrotation Xrotation
				JOINT lowerneck
				{
					OFFSET 0 0 0
					CHANNELS 3 Zrotation Yrotation Xrotation
					JOINT Neck
					{
						OFFSET 0.00559 1.76246 0.31246
						CHANNELS 3 Zrotation Yrotation Xrotation
						JOINT Head
						{
							OFFSET -0.07011 1.80354 -0.30524
							CHANNELS 3 Zrotation Yrotation Xrotation
							End Site
							{
								OFFSET -0.02385 1.83547 -0.13906
							}
						}
					}
				}
				JOINT LeftCollar
				{
					OFFSET 0 0 0
					CHANNELS 3 Zrotation Yrotation Xrotation
					JOINT LeftShoulder
					{
						OFFSET 3.20667 1.30156 -0.60240
CHANNELS 3 Zrotation Xrotation Yrotation
						JOINT LeftElbow
						{
OFFSET 0 -4.956630 0.000000
CHANNELS 3 Zrotation Xrotation Yrotation
							JOINT LeftWrist
							{
OFFSET 0 -3.381770 0.000000
CHANNELS 3 Zrotation Xrotation Yrotation
								JOINT lhand
								{
									OFFSET 0 0 0
CHANNELS 3 Zrotation Xrotation Yrotation
									JOINT LFingers
									{
OFFSET 0 -0.662910 0.000000
CHANNELS 3 Zrotation Xrotation Yrotation
										End Site
										{
OFFSET 0 -0.534450 0.000000
										}
									}
								}
								JOINT LThumb
								{
OFFSET 0 0.000000 0.000000
CHANNELS 3 Zrotation Xrotation Yrotation
									End Site
									{
OFFSET 0 -0.542610 0.542610
									}
								}
							}
						}
					}
				}
				JOINT RightCollar
				{
					OFFSET 0 0 0
					CHANNELS 3 Zrotation Yrotation Xrotation
					JOINT RightShoulder
					{
						OFFSET -3.06877 1.34672 -0.60964
CHANNELS 3 Zrotation Xrotation Yrotation
						JOINT RightElbow
						{
OFFSET 0 -5.083650 0.000000
CHANNELS 3 Zrotation Xrotation Yrotation
							JOINT RightWrist
							{
OFFSET 0 -3.359840 0.000000
CHANNELS 3 Zrotation Xrotation Yrotation
								JOINT rhand
								{
									OFFSET 0 0 0
CHANNELS 3 Zrotation Xrotation Yrotation
									JOINT RFingers
									{
OFFSET 0 -0.820760 0.000000
CHANNELS 3 Zrotation Xrotation Yrotation
										End Site
										{
OFFSET 0 -0.661720 0.000000
										}
									}
								}
								JOINT RThumb
								{
OFFSET 0 0.000000 0.000000
CHANNELS 3 Zrotation Xrotation Yrotation
									End Site
									{
OFFSET 0 -0.671820 0.671820
									}
								}
							}
						}
					}
				}
			}
		}
	}
}
MOTION
Frames: 9
Frame Time: 0.008333333333333333
-0.699305 17.608859 -4.218562 20.019300 28.152165 68.158512 0.000000 0.000000 0.000000 -5.926356 -14.906708 -41.470615 2.082624 9.035977 25.907923 0.266467 -3.930800 12.005943 0.402707 -4.073446 -11.283567 0.000000 0.000000 0.000000 -1.090454 4.992898 -88.474860 -4.077258 -12.262569 36.667184 -0.082933 -1.548490 -6.242240 -0.614181 -5.015418 13.952649 5.970415 4.376431 25.692129 11.170737 7.447765 14.127163 7.068266 3.626519 0.789562 -3.058300 -12.719902 -15.022026 -1.269953 -16.613051 1.129598 -1.132587 -8.445464 3.081797 0.000000 0.000000 0.000000 3.232623 -5.768081 -50.734565 62.148960 -56.855895 36.134849 11.222573 -9.596699 -24.326441 0.000000 0.000000 0.000000 -7.125000 0.000000 0.000000 -18.955056 53.710549 4.176116 0.000000 0.000000 0.000000 -107.454924 -46.143841 -35.600231 -11.494893 -19.042859 -1.934337 -26.149857 -4.643728 -10.280557 0.000000 0.000000 0.000000 7.125000 0.000000 0.000000 0.623823 18.556640 0.392878
-0.717716 17.562358 -4.210599 20.592658 28.180755 70.544827 0.000000 0.000000 0.000000 -5.227922 -15.299443 -43.619297 2.154778 9.181170 26.363725 0.322338 -3.737979 12.761054 0.299606 -3.514671 -9.715690 0.000000 0.000000 0.000000 -2.041895 4.802707 -90.622992 -4.073190 -12.257214 36.647946 -0.058403 -2.185126 -5.915544 -0.639807 -5.117223 14.243295 5.918548 4.400612 23.776199 11.160399 7.278266 13.910210 7.243339 3.550784 1.468229 -2.818736 -12.732558 -14.923449 -1.272286 -16.709332 0.490736 -1.129705 -8.501538 2.815796 0.000000 0.000000 0.000000 3.261993 -5.774415 -50.704035 61.747351 -56.757734 35.798785 11.031727 -9.454582 -24.326687 0.000000 0.000000 0.000000 -7.125000 0.000000 0.000000 -19.141788 53.676127 4.203246 0.000000 0.000000 0.000000 -109.096468 -45.759605 -37.219403 -11.372542 -18.857046 -1.894606 -26.485061 -3.873212 -10.284791 0.000000 0.000000 0.000000 7.125000 0.000000 0.000000 0.387333 18.519421 0.244221
-0.731295 17.527394 -4.189102 21.105978 28.257423 72.233734 0.000000 0.000000 0.000000 -4.739717 -15.463475 -44.993393 2.227998 9.325508 26.819017 0.349456 -3.872866 13.272289 0.264279 -3.306721 -9.133926 0.000000 0.000000 0.000000 -2.768910 4.608241 -92.006101 -4.075072 -12.259645 36.656702 -0.043111 -2.681539 -5.825658 -0.641206 -5.122893 14.259384 6.018091 4.372962 22.687967 11.183212 7.154210 13.794352 7.312052 3.498490 1.887223 -2.696213 -12.741104 -14.838263 -1.207202 -16.775122 -0.033301 -1.095355 -8.539005 2.611485 0.000000 0.000000 0.000000 3.370596 -5.777740 -50.827179 61.710107 -56.748694 35.767634 10.987106 -9.048205 -25.129267 0.000000 0.000000 0.000000 -7.125000 0.000000 0.000000 -19.632469 54.425609 4.684953 0.000000 0.000000 0.000000 -110.668189 -45.372228 -38.864794 -11.221453 -18.626771 -1.846090 -26.917104 -3.070343 -10.293193 0.000000 0.000000 0.000000 7.125000 0.000000 0.000000 0.082908 18.467488 0.052353
-0.742680 17.506685 -4.154237 21.277120 28.272311 73.166168 0.000000 0.000000 0.000000 -4.441948 -15.206989 -45.593158 2.283499 9.433142 27.159885 0.354200 -4.223377 13.601148 0.261156 -3.287791 -9.081106 0.000000 0.000000 0.000000 -3.249220 4.711833 -92.756171 -4.083669 -12.270936 36.697131 -0.035099 -2.952412 -5.803097 -0.411656 -4.078307 11.302862 6.133278 4.446030 22.334134 11.252893 7.223488 13.808674 7.339415 3.534211 2.077441 -2.815344 -12.756581 -14.759918 -1.012679 -16.803049 -0.411381 -0.995233 -8.551379 2.494702 0.000000 0.000000 0.000000 3.468063 -5.761318 -50.968472 61.530257 -56.704089 35.617297 10.968763 -9.128092 -24.830015 0.000000 0.000000 0.000000 -7.125000 0.000000 0.000000 -19.480909 54.140198 4.507792 0.000000 0.000000 0.000000 -112.156581 -44.915207 -40.412414 -11.058845 -18.378250 -1.794523 -27.550933 -2.161005 -10.056099 0.000000 0.000000 0.000000 7.125000 0.000000 0.000000 -0.380531 18.669072 -0.238117
-0.750016 17.484251 -4.124464 21.697275 28.258238 74.174202 0.000000 0.000000 0.000000 -4.223205 -15.303302 -46.036669 2.318093 9.499271 27.370102 0.361474 -4.289806 13.754556 0.253812 -3.241269 -8.951226 0.000000 0.000000 0.000000 -3.953958 4.609753 -93.443207 -4.098861 -12.290791 36.768620 -0.024783 -3.336610 -5.845787 -0.199794 -2.810148 7.755297 6.252316 4.460497 22.037047 11.320016 7.235710 13.753136 7.363864 3.543656 2.167561 -2.929196 -12.790110 -14.653213 -0.833729 -16.854730 -0.744398 -0.902907 -8.575636 2.387229 0.000000 0.000000 0.000000 3.513708 -5.690621 -51.225860 61.282063 -56.641926 35.409931 11.036424 -9.138675 -24.584318 0.000000 0.000000 0.000000 -7.125000 0.000000 0.000000 -19.277755 53.920696 4.352331 0.000000 0.000000 0.000000 -113.469550 -44.349849 -41.477063 -10.932728 -18.184941 -1.754905 -28.218855 -1.370810 -9.611517 0.000000 0.000000 0.000000 7.125000 0.000000 0.000000 -0.884258 19.102325 -0.545007
-0.757890 17.457337 -4.097544 22.171697 28.207901 75.299735 0.000000 0.000000 0.000000 -4.004800 -15.512837 -46.522928 2.340217 9.541397 27.504149 0.364756 -4.257238 13.777934 0.252718 -3.234687 -8.932891 0.000000 0.000000 0.000000 -4.809641 4.468564 -94.216482 -4.117738 -12.315470 36.857323 -0.013487 -3.922892 -6.150612 -0.289031 -3.382916 9.353364 6.293753 4.473056 21.582901 11.373126 7.217378 13.671046 7.432281 3.535759 2.300215 -2.862249 -12.825599 -14.578835 -0.756045 -16.938769 -1.106587 -0.868887 -8.620800 2.250017 0.000000 0.000000 0.000000 3.578572 -5.611562 -51.495390 61.059024 -56.585544 35.223719 10.888426 -9.100854 -24.553777 0.000000 0.000000 0.000000 -7.125000 0.000000 0.000000 -19.405718 53.864772 4.355793 0.000000 0.000000 0.000000 -114.629001 -43.776907 -42.173062 -10.874331 -18.095300 -1.736708 -28.997169 -0.790963 -9.131195 0.000000 0.000000 0.000000 7.125000 0.000000 0.000000 -1.472062 19.569195 -0.892679
-0.767270 17.431933 -4.065740 22.489463 28.195577 76.222668 0.000000 0.000000 0.000000 -3.751076 -15.573649 -46.821085 2.357819 9.574704 27.610213 0.356362 -4.296795 13.685199 0.267786 -3.328084 -9.193670 0.000000 0.000000 0.000000 -5.538764 4.463471 -94.861383 -4.142671 -12.347842 36.973877 -0.003835 -4.541553 -6.628833 -0.589978 -4.848470 13.490033 6.369638 4.485672 21.216681 11.426224 7.205170 13.666169 7.481665 3.531789 2.481772 -2.683939 -12.832306 -14.546911 -0.745126 -17.004651 -1.564118 -0.866580 -8.661003 2.071758 0.000000 0.000000 0.000000 3.697681 -5.593525 -51.678695 60.967673 -56.562315 35.147465 10.675977 -9.116083 -24.731154 0.000000 0.000000 0.000000 -7.125000 0.000000 0.000000 -19.712184 53.992974 4.492188 0.000000 0.000000 0.000000 -115.713975 -43.287045 -42.810243 -10.885030 -18.111805 -1.740028 -29.945875 -0.339111 -8.601107 0.000000 0.000000 0.000000 7.125000 0.000000 0.000000 -2.189284 20.082685 -1.302843
-0.779149 17.410177 -4.028803 22.662381 28.223305 76.893531 0.000000 0.000000 0.000000 -3.449119 -15.530136 -46.879405 2.375212 9.607367 27.714364 0.343852 -4.192670 13.423343 0.276499 -3.382095 -9.344500 0.000000 0.000000 0.000000 -6.130903 4.605186 -95.350082 -4.176859 -12.392002 37.133253 0.008702 -5.147264 -7.068113 -0.748955 -5.527862 15.420569 6.473573 4.498298 21.067118 11.487652 7.217174 13.708905 7.507706 3.539573 2.610537 -2.465249 -12.817354 -14.435826 -0.789956 -17.056966 -2.191135 -0.869106 -8.697722 1.814284 0.000000 0.000000 0.000000 3.842963 -5.577949 -51.800513 60.966916 -56.562107 35.146796 10.575844 -9.167190 -25.021125 0.000000 0.000000 0.000000 -7.125000 0.000000 0.000000 -19.973492 54.247453 4.681691 0.000000 0.000000 0.000000 -116.776821 -42.984501 -43.904442 -10.869685 -18.088249 -1.735245 -30.873324 0.459084 -8.070652 0.000000 0.000000 0.000000 7.125000 0.000000 0.000000 -2.895811 20.605366 -1.691578
-0.791714 17.388795 -3.992520 22.835899 28.196774 77.498802 0.000000 0.000000 0.000000 -3.210507 -15.506450 -46.863768 2.392271 9.639329 27.816436 0.335512 -3.864405 13.058567 0.264442 -3.307446 -9.136028 0.000000 0.000000 0.000000 -6.852467 4.768276 -95.788472 -4.222227 -12.450268 37.344210 0.027013 -5.805519 -7.470156 -0.774578 -5.618705 15.682231 6.481712 4.540275 20.993828 11.561832 7.263239 13.729020 7.585246 3.558281 2.657986 -2.270398 -12.822298 -14.194831 -0.839919 -17.139770 -2.897387 -0.856561 -8.749731 1.511346 0.000000 0.000000 0.000000 3.956190 -5.489337 -51.977811 60.963166 -56.561159 35.143647 10.579122 -9.192136 -25.108015 0.000000 0.000000 0.000000 -7.125000 0.000000 0.000000 -20.019397 54.329810 4.733783 0.000000 0.000000 0.000000 -117.814411 -42.806874 -45.511401 -10.765426 -17.927748 -1.703077 -31.744192 1.775530 -7.584323 0.000000 0.000000 0.000000 7.125000 0.000000 0.000000 -3.562948 21.089418 -2.044262
